<svg width="198" height="198" viewBox="0 0 198 198" fill="none" xmlns="http://www.w3.org/2000/svg">
<path d="M167.482 98.1719V179.173C167.482 182.029 165.168 184.344 162.312 184.344H34.7777C31.9223 184.344 29.6074 182.029 29.6074 179.173V98.1719" stroke="#170F03" stroke-width="9.57465" stroke-linecap="round" stroke-linejoin="round"/>
<path d="M179.548 55.0859H17.5453C14.6898 55.0859 12.375 57.4008 12.375 60.2562V93.0016C12.375 95.8573 14.6898 98.1719 17.5453 98.1719H179.548C182.404 98.1719 184.719 95.8573 184.719 93.0016V60.2562C184.719 57.4008 182.404 55.0859 179.548 55.0859Z" stroke="#170F03" stroke-width="9.57465" stroke-linecap="round" stroke-linejoin="round"/>
<path d="M98.5469 184.344V55.0859" stroke="#170F03" stroke-width="9.57465" stroke-linecap="round" stroke-linejoin="round"/>
<path d="M98.5488 55.0859H59.7715C54.0579 55.0859 48.5784 52.8163 44.5383 48.7762C40.4982 44.7361 38.2285 39.2565 38.2285 33.543C38.2285 27.8294 40.4982 22.3498 44.5383 18.3098C48.5784 14.2697 54.0579 12 59.7715 12C89.9316 12 98.5488 55.0859 98.5488 55.0859Z" stroke="#170F03" stroke-width="7.65972" stroke-linecap="round" stroke-linejoin="round"/>
<path d="M98.5469 55.0859H137.324C143.037 55.0859 148.517 52.8163 152.558 48.7762C156.597 44.7361 158.867 39.2565 158.867 33.543C158.867 27.8294 156.597 22.3498 152.558 18.3098C148.517 14.2697 143.037 12 137.324 12C107.164 12 98.5469 55.0859 98.5469 55.0859Z" stroke="#170F03" stroke-width="7.65972" stroke-linecap="round" stroke-linejoin="round"/>
</svg>
