<svg width="172" height="154" viewBox="0 0 172 154" fill="none" xmlns="http://www.w3.org/2000/svg">
<path d="M32.47 4V20.0406H4V35.7453C4 62.0317 11.8103 76.6866 30.5804 85.7987C37.5584 89.5505 43.999 94.2256 49.7283 99.6978C54.3332 104.61 59.9493 108.464 66.1888 110.993L73.2853 113.177V132.199H62.4516C49.3504 132.199 44.9413 135.18 44.9413 144.04V150.003H126.824V144.67C126.824 135.978 121.449 132.073 109.02 132.073H98.48V113.177L105.702 111.035C111.951 108.503 117.569 104.633 122.163 99.6978C128.14 94.001 134.83 89.1032 142.067 85.1268C147.686 82.4229 152.704 78.617 156.823 73.9354C160.941 69.2538 164.077 63.792 166.044 57.8746C167.38 50.5479 167.999 43.1082 167.891 35.6613V20.0826H139.295V4H32.47ZM85.8827 30.7483L94.4908 48.5526H115.234L98.9839 63.5434L103.645 82.6913L85.8827 73.1594L68.1204 82.8173L72.7814 63.6694L56.4889 48.6785H77.2745L85.8827 30.7483ZM18.9488 36.0812H32.218V69.1702C30.8323 70.01 26.5072 64.9711 23.3579 59.2183C21.5699 54.814 20.4244 50.1755 19.9566 45.4452L18.9488 36.0812ZM139.547 36.0812H153.992L152.775 45.3193C152.488 53.0094 149.396 60.3287 144.082 65.8949C142.832 67.5986 141.246 69.0277 139.421 70.094L139.547 36.0812Z" stroke="#170F03" stroke-width="7.72958" stroke-linecap="round" stroke-linejoin="round"/>
</svg>
